%TF.GenerationSoftware,KiCad,Pcbnew,7.0.1-0*%
%TF.CreationDate,2023-08-06T23:45:38+01:00*%
%TF.ProjectId,chademo-charge-controller,63686164-656d-46f2-9d63-68617267652d,rev?*%
%TF.SameCoordinates,Original*%
%TF.FileFunction,Soldermask,Top*%
%TF.FilePolarity,Negative*%
%FSLAX46Y46*%
G04 Gerber Fmt 4.6, Leading zero omitted, Abs format (unit mm)*
G04 Created by KiCad (PCBNEW 7.0.1-0) date 2023-08-06 23:45:38*
%MOMM*%
%LPD*%
G01*
G04 APERTURE LIST*
G04 Aperture macros list*
%AMRoundRect*
0 Rectangle with rounded corners*
0 $1 Rounding radius*
0 $2 $3 $4 $5 $6 $7 $8 $9 X,Y pos of 4 corners*
0 Add a 4 corners polygon primitive as box body*
4,1,4,$2,$3,$4,$5,$6,$7,$8,$9,$2,$3,0*
0 Add four circle primitives for the rounded corners*
1,1,$1+$1,$2,$3*
1,1,$1+$1,$4,$5*
1,1,$1+$1,$6,$7*
1,1,$1+$1,$8,$9*
0 Add four rect primitives between the rounded corners*
20,1,$1+$1,$2,$3,$4,$5,0*
20,1,$1+$1,$4,$5,$6,$7,0*
20,1,$1+$1,$6,$7,$8,$9,0*
20,1,$1+$1,$8,$9,$2,$3,0*%
G04 Aperture macros list end*
%ADD10R,1.200000X1.000000*%
%ADD11R,1.200000X3.300000*%
%ADD12R,0.450000X1.475000*%
%ADD13R,0.450000X1.400000*%
%ADD14R,1.600000X1.600000*%
%ADD15O,1.600000X1.600000*%
%ADD16RoundRect,0.250000X0.262500X0.450000X-0.262500X0.450000X-0.262500X-0.450000X0.262500X-0.450000X0*%
%ADD17RoundRect,0.243750X-0.243750X-0.456250X0.243750X-0.456250X0.243750X0.456250X-0.243750X0.456250X0*%
%ADD18RoundRect,0.250000X-0.262500X-0.450000X0.262500X-0.450000X0.262500X0.450000X-0.262500X0.450000X0*%
%ADD19RoundRect,0.225000X0.225000X0.250000X-0.225000X0.250000X-0.225000X-0.250000X0.225000X-0.250000X0*%
%ADD20C,1.800000*%
%ADD21C,5.000000*%
%ADD22R,1.700000X1.700000*%
%ADD23O,1.700000X1.700000*%
%ADD24R,2.050000X2.250000*%
%ADD25RoundRect,0.150000X-0.150000X0.825000X-0.150000X-0.825000X0.150000X-0.825000X0.150000X0.825000X0*%
%ADD26C,5.600000*%
%ADD27R,1.000000X1.500000*%
%ADD28RoundRect,0.250000X-0.250000X-0.475000X0.250000X-0.475000X0.250000X0.475000X-0.250000X0.475000X0*%
%ADD29RoundRect,0.225000X-0.250000X0.225000X-0.250000X-0.225000X0.250000X-0.225000X0.250000X0.225000X0*%
%ADD30RoundRect,0.250000X-0.450000X0.262500X-0.450000X-0.262500X0.450000X-0.262500X0.450000X0.262500X0*%
%ADD31O,1.800000X1.800000*%
%ADD32O,1.500000X1.500000*%
%ADD33R,3.500000X1.700000*%
%ADD34R,1.700000X3.500000*%
%ADD35R,1.600000X5.700000*%
G04 APERTURE END LIST*
D10*
%TO.C,IC6*%
X118716000Y-84088000D03*
X118716000Y-81788000D03*
X118716000Y-79488000D03*
D11*
X111916000Y-81788000D03*
%TD*%
D12*
%TO.C,IC4*%
X217456598Y-94653400D03*
X218106598Y-94653400D03*
X218756598Y-94653400D03*
X219406598Y-94653400D03*
X220056598Y-94653400D03*
X220706598Y-94653400D03*
X221356598Y-94653400D03*
X222006598Y-94653400D03*
X222656598Y-94653400D03*
X223306598Y-94653400D03*
X223306598Y-88777400D03*
X222656598Y-88777400D03*
X222006598Y-88777400D03*
X221356598Y-88777400D03*
X220706598Y-88777400D03*
X220056598Y-88777400D03*
X219406598Y-88777400D03*
X218756598Y-88777400D03*
X218106598Y-88777400D03*
X217456598Y-88777400D03*
%TD*%
%TO.C,IC2*%
X198584200Y-94589600D03*
X199234200Y-94589600D03*
X199884200Y-94589600D03*
X200534200Y-94589600D03*
X201184200Y-94589600D03*
X201834200Y-94589600D03*
X202484200Y-94589600D03*
X203134200Y-94589600D03*
X203784200Y-94589600D03*
X204434200Y-94589600D03*
X204434200Y-88713600D03*
X203784200Y-88713600D03*
X203134200Y-88713600D03*
X202484200Y-88713600D03*
X201834200Y-88713600D03*
X201184200Y-88713600D03*
X200534200Y-88713600D03*
X199884200Y-88713600D03*
X199234200Y-88713600D03*
X198584200Y-88713600D03*
%TD*%
D13*
%TO.C,IC1*%
X212108000Y-64430000D03*
X212758000Y-64430000D03*
X213408000Y-64430000D03*
X214058000Y-64430000D03*
X214058000Y-60030000D03*
X213408000Y-60030000D03*
X212758000Y-60030000D03*
X212108000Y-60030000D03*
%TD*%
D14*
%TO.C,U7*%
X137922000Y-70866000D03*
D15*
X140462000Y-70866000D03*
X140462000Y-63246000D03*
X137922000Y-63246000D03*
%TD*%
D16*
%TO.C,R23*%
X151637369Y-49893217D03*
X149812369Y-49893217D03*
%TD*%
%TO.C,R22*%
X146859000Y-67056000D03*
X145034000Y-67056000D03*
%TD*%
D17*
%TO.C,D8*%
X118150451Y-49913910D03*
X120025451Y-49913910D03*
%TD*%
D14*
%TO.C,U6*%
X137922000Y-100076000D03*
D15*
X140462000Y-100076000D03*
X140462000Y-92456000D03*
X137922000Y-92456000D03*
%TD*%
D16*
%TO.C,R21*%
X147983500Y-96276000D03*
X146158500Y-96276000D03*
%TD*%
%TO.C,R20*%
X151668427Y-46840365D03*
X149843427Y-46840365D03*
%TD*%
D18*
%TO.C,R19*%
X131630630Y-96226878D03*
X133455630Y-96226878D03*
%TD*%
D17*
%TO.C,D7*%
X118073022Y-46825148D03*
X119948022Y-46825148D03*
%TD*%
D19*
%TO.C,C7*%
X133464600Y-92710000D03*
X131914600Y-92710000D03*
%TD*%
D18*
%TO.C,R18*%
X107742750Y-100320000D03*
X109567750Y-100320000D03*
%TD*%
D16*
%TO.C,R17*%
X123594500Y-114554000D03*
X121769500Y-114554000D03*
%TD*%
D20*
%TO.C,J2*%
X112778000Y-134376000D03*
X116078000Y-134376000D03*
X119378000Y-134376000D03*
X122678000Y-134376000D03*
X125978000Y-134376000D03*
X129278000Y-134376000D03*
X132578000Y-134376000D03*
X135878000Y-134376000D03*
X139178000Y-134376000D03*
X142478000Y-134376000D03*
X145778000Y-134376000D03*
X149078000Y-134376000D03*
X152378000Y-134376000D03*
X155678000Y-134376000D03*
X180478000Y-134376000D03*
X183778000Y-134376000D03*
X187078000Y-134376000D03*
X190378000Y-134376000D03*
X193678000Y-134376000D03*
X196978000Y-134376000D03*
X200278000Y-134376000D03*
X203578000Y-134376000D03*
X206878000Y-134376000D03*
X210178000Y-134376000D03*
X213478000Y-134376000D03*
X216778000Y-134376000D03*
X220078000Y-134376000D03*
X223378000Y-134376000D03*
X112778000Y-139176000D03*
X116078000Y-139176000D03*
X119378000Y-139176000D03*
X122678000Y-139176000D03*
X125978000Y-139176000D03*
X129278000Y-139176000D03*
X132578000Y-139176000D03*
X135878000Y-139176000D03*
X139178000Y-139176000D03*
X142478000Y-139176000D03*
X145778000Y-139176000D03*
X149078000Y-139176000D03*
X152378000Y-139176000D03*
X155678000Y-139176000D03*
X180478000Y-139176000D03*
X183778000Y-139176000D03*
X187078000Y-139176000D03*
X190378000Y-139176000D03*
X193678000Y-139176000D03*
X196978000Y-139176000D03*
X200278000Y-139176000D03*
X203578000Y-139176000D03*
X206878000Y-139176000D03*
X210178000Y-139176000D03*
X213478000Y-139176000D03*
X216778000Y-139176000D03*
X220078000Y-139176000D03*
X223378000Y-139176000D03*
D21*
X105778000Y-138176000D03*
X230378000Y-138176000D03*
%TD*%
D14*
%TO.C,U2*%
X114751250Y-100320000D03*
D15*
X117291250Y-100320000D03*
X117291250Y-92700000D03*
X114751250Y-92700000D03*
%TD*%
D16*
%TO.C,R10*%
X124042292Y-110236000D03*
X122217292Y-110236000D03*
%TD*%
D22*
%TO.C,J1*%
X180340000Y-31750000D03*
D23*
X180340000Y-34290000D03*
X180340000Y-36830000D03*
%TD*%
D24*
%TO.C,D1*%
X187960000Y-111337200D03*
X187960000Y-115637200D03*
%TD*%
D19*
%TO.C,C1*%
X208293000Y-66462000D03*
X206743000Y-66462000D03*
%TD*%
D22*
%TO.C,J3*%
X200020000Y-115570000D03*
D23*
X202560000Y-115570000D03*
%TD*%
D16*
%TO.C,R4*%
X124050750Y-96520000D03*
X122225750Y-96520000D03*
%TD*%
D25*
%TO.C,IC5*%
X221897198Y-101447600D03*
X220627198Y-101447600D03*
X219357198Y-101447600D03*
X218087198Y-101447600D03*
X218087198Y-106397600D03*
X219357198Y-106397600D03*
X220627198Y-106397600D03*
X221897198Y-106397600D03*
%TD*%
D26*
%TO.C,H1*%
X105796570Y-39114133D03*
%TD*%
D16*
%TO.C,R8*%
X151688250Y-38321652D03*
X149863250Y-38321652D03*
%TD*%
D17*
%TO.C,D5*%
X118029715Y-43942000D03*
X119904715Y-43942000D03*
%TD*%
D27*
%TO.C,JP1*%
X198441755Y-110630174D03*
X197141755Y-110630174D03*
%TD*%
D28*
%TO.C,C4*%
X215343200Y-39471600D03*
X217243200Y-39471600D03*
%TD*%
D16*
%TO.C,R11*%
X151671715Y-43942000D03*
X149846715Y-43942000D03*
%TD*%
D17*
%TO.C,D6*%
X117955663Y-32258908D03*
X119830663Y-32258908D03*
%TD*%
D18*
%TO.C,R6*%
X107395000Y-67310000D03*
X109220000Y-67310000D03*
%TD*%
D29*
%TO.C,C3*%
X193548000Y-88887000D03*
X193548000Y-90437000D03*
%TD*%
D16*
%TO.C,R15*%
X151788500Y-32258000D03*
X149963500Y-32258000D03*
%TD*%
D30*
%TO.C,R2*%
X221373200Y-48922300D03*
X221373200Y-50747300D03*
%TD*%
D14*
%TO.C,U5*%
X137897642Y-115998393D03*
D15*
X140437642Y-115998393D03*
X140437642Y-108378393D03*
X137897642Y-108378393D03*
%TD*%
D16*
%TO.C,R1*%
X212327000Y-39522400D03*
X210502000Y-39522400D03*
%TD*%
%TO.C,R5*%
X151677624Y-35378780D03*
X149852624Y-35378780D03*
%TD*%
D26*
%TO.C,H2*%
X229870000Y-39114133D03*
%TD*%
D30*
%TO.C,R3*%
X221424000Y-60215500D03*
X221424000Y-62040500D03*
%TD*%
D19*
%TO.C,C5*%
X109430250Y-94478000D03*
X107880250Y-94478000D03*
%TD*%
D29*
%TO.C,C6*%
X108966000Y-112001000D03*
X108966000Y-113551000D03*
%TD*%
D18*
%TO.C,R14*%
X145268642Y-113334800D03*
X147093642Y-113334800D03*
%TD*%
D31*
%TO.C,U1*%
X166591400Y-43462400D03*
D32*
X166891400Y-46492400D03*
X171741400Y-46492400D03*
D31*
X172041400Y-43462400D03*
D23*
X160426400Y-43332400D03*
D33*
X159526400Y-43332400D03*
D23*
X160426400Y-45872400D03*
D33*
X159526400Y-45872400D03*
D22*
X160426400Y-48412400D03*
D33*
X159526400Y-48412400D03*
D23*
X160426400Y-50952400D03*
D33*
X159526400Y-50952400D03*
D23*
X160426400Y-53492400D03*
D33*
X159526400Y-53492400D03*
D23*
X160426400Y-56032400D03*
D33*
X159526400Y-56032400D03*
D23*
X160426400Y-58572400D03*
D33*
X159526400Y-58572400D03*
D22*
X160426400Y-61112400D03*
D33*
X159526400Y-61112400D03*
D23*
X160426400Y-63652400D03*
D33*
X159526400Y-63652400D03*
D23*
X160426400Y-66192400D03*
D33*
X159526400Y-66192400D03*
D23*
X160426400Y-68732400D03*
D33*
X159526400Y-68732400D03*
D23*
X160426400Y-71272400D03*
D33*
X159526400Y-71272400D03*
D22*
X160426400Y-73812400D03*
D33*
X159526400Y-73812400D03*
D23*
X160426400Y-76352400D03*
D33*
X159526400Y-76352400D03*
D23*
X160426400Y-78892400D03*
D33*
X159526400Y-78892400D03*
D23*
X160426400Y-81432400D03*
D33*
X159526400Y-81432400D03*
D23*
X160426400Y-83972400D03*
D33*
X159526400Y-83972400D03*
D22*
X160426400Y-86512400D03*
D33*
X159526400Y-86512400D03*
D23*
X160426400Y-89052400D03*
D33*
X159526400Y-89052400D03*
D23*
X160426400Y-91592400D03*
D33*
X159526400Y-91592400D03*
D23*
X178206400Y-91592400D03*
D33*
X179106400Y-91592400D03*
D23*
X178206400Y-89052400D03*
D33*
X179106400Y-89052400D03*
D22*
X178206400Y-86512400D03*
D33*
X179106400Y-86512400D03*
D23*
X178206400Y-83972400D03*
D33*
X179106400Y-83972400D03*
D23*
X178206400Y-81432400D03*
D33*
X179106400Y-81432400D03*
D23*
X178206400Y-78892400D03*
D33*
X179106400Y-78892400D03*
D23*
X178206400Y-76352400D03*
D33*
X179106400Y-76352400D03*
D22*
X178206400Y-73812400D03*
D33*
X179106400Y-73812400D03*
D23*
X178206400Y-71272400D03*
D33*
X179106400Y-71272400D03*
D23*
X178206400Y-68732400D03*
D33*
X179106400Y-68732400D03*
D23*
X178206400Y-66192400D03*
D33*
X179106400Y-66192400D03*
D23*
X178206400Y-63652400D03*
D33*
X179106400Y-63652400D03*
D22*
X178206400Y-61112400D03*
D33*
X179106400Y-61112400D03*
D23*
X178206400Y-58572400D03*
D33*
X179106400Y-58572400D03*
D23*
X178206400Y-56032400D03*
D33*
X179106400Y-56032400D03*
D23*
X178206400Y-53492400D03*
D33*
X179106400Y-53492400D03*
D23*
X178206400Y-50952400D03*
D33*
X179106400Y-50952400D03*
D22*
X178206400Y-48412400D03*
D33*
X179106400Y-48412400D03*
D23*
X178206400Y-45872400D03*
D33*
X179106400Y-45872400D03*
D23*
X178206400Y-43332400D03*
D33*
X179106400Y-43332400D03*
D23*
X166776400Y-91362400D03*
D34*
X166776400Y-92262400D03*
D22*
X169316400Y-91362400D03*
D34*
X169316400Y-92262400D03*
D23*
X171856400Y-91362400D03*
D34*
X171856400Y-92262400D03*
%TD*%
D35*
%TO.C,L1*%
X210692000Y-49022000D03*
X215392000Y-49022000D03*
%TD*%
D16*
%TO.C,R9*%
X151718808Y-41102465D03*
X149893808Y-41102465D03*
%TD*%
D14*
%TO.C,U4*%
X113787000Y-71110000D03*
D15*
X116327000Y-71110000D03*
X116327000Y-63490000D03*
X113787000Y-63490000D03*
%TD*%
D14*
%TO.C,U3*%
X114300000Y-116586000D03*
D15*
X116840000Y-116586000D03*
X116840000Y-108966000D03*
X114300000Y-108966000D03*
%TD*%
D18*
%TO.C,R16*%
X131910142Y-112706393D03*
X133735142Y-112706393D03*
%TD*%
D17*
%TO.C,D2*%
X117999124Y-35378780D03*
X119874124Y-35378780D03*
%TD*%
D22*
%TO.C,J7*%
X205486000Y-39116000D03*
D23*
X205486000Y-36576000D03*
%TD*%
D25*
%TO.C,IC3*%
X203073000Y-101650800D03*
X201803000Y-101650800D03*
X200533000Y-101650800D03*
X199263000Y-101650800D03*
X199263000Y-106600800D03*
X200533000Y-106600800D03*
X201803000Y-106600800D03*
X203073000Y-106600800D03*
%TD*%
D17*
%TO.C,D3*%
X118009750Y-38321652D03*
X119884750Y-38321652D03*
%TD*%
D27*
%TO.C,JP2*%
X217170000Y-110998000D03*
X215870000Y-110998000D03*
%TD*%
D16*
%TO.C,R13*%
X224178500Y-110998000D03*
X222353500Y-110998000D03*
%TD*%
D17*
%TO.C,D4*%
X118040308Y-41102465D03*
X119915308Y-41102465D03*
%TD*%
D22*
%TO.C,J8*%
X218793398Y-115570000D03*
D23*
X221333398Y-115570000D03*
%TD*%
D29*
%TO.C,C2*%
X214226398Y-88887000D03*
X214226398Y-90437000D03*
%TD*%
D16*
%TO.C,R12*%
X205128500Y-110632000D03*
X203303500Y-110632000D03*
%TD*%
%TO.C,R7*%
X122578500Y-67310000D03*
X120753500Y-67310000D03*
%TD*%
M02*
