M48
; DRILL file {KiCad 7.0.1-0} date 2023 August 06, Sunday 23:46:38
; FORMAT={-:-/ absolute / metric / decimal}
; #@! TF.CreationDate,2023-08-06T23:46:38+01:00
; #@! TF.GenerationSoftware,Kicad,Pcbnew,7.0.1-0
; #@! TF.FileFunction,Plated,1,2,PTH
FMAT,2
METRIC
; #@! TA.AperFunction,Plated,PTH,ViaDrill
T1C0.400
; #@! TA.AperFunction,Plated,PTH,ComponentDrill
T2C0.800
; #@! TA.AperFunction,Plated,PTH,ComponentDrill
T3C1.000
; #@! TA.AperFunction,Plated,PTH,ComponentDrill
T4C1.020
; #@! TA.AperFunction,Plated,PTH,ComponentDrill
T5C1.100
; #@! TA.AperFunction,Plated,PTH,ComponentDrill
T6C3.200
; #@! TA.AperFunction,Plated,PTH,ComponentDrill
T7C3.300
%
G90
G05
T1
X104.369Y-78.41
X105.461Y-111.201
X108.966Y-115.062
X109.144Y-43.891
X109.982Y-38.354
X111.252Y-35.374
X112.065Y-116.535
X112.522Y-41.143
X113.792Y-32.258
X114.808Y-46.852
X119.888Y-116.586
X122.047Y-83.972
X122.226Y-104.394
X122.578Y-71.628
X126.746Y-110.236
X131.91Y-110.236
X132.588Y-100.076
X137.871Y-79.146
X147.981Y-110.236
X153.67Y-86.614
X194.056Y-76.352
X195.326Y-84.328
X196.723Y-82.042
X200.533Y-83.058
X201.168Y-99.06
X201.168Y-109.474
X201.168Y-112.268
X202.438Y-96.774
X205.994Y-80.01
X208.28Y-81.026
X210.972Y-78.892
X213.004Y-43.028
X213.868Y-84.328
X217.528Y-80.01
X218.036Y-83.058
X218.288Y-55.829
X219.964Y-99.06
X219.964Y-109.728
X219.964Y-112.268
X220.322Y-81.026
X221.488Y-96.774
T2
X113.787Y-63.49
X113.787Y-71.11
X114.3Y-108.966
X114.3Y-116.586
X114.751Y-92.7
X114.751Y-100.32
X116.327Y-63.49
X116.327Y-71.11
X116.84Y-108.966
X116.84Y-116.586
X117.291Y-92.7
X117.291Y-100.32
X137.898Y-108.378
X137.898Y-115.998
X137.922Y-63.246
X137.922Y-70.866
X137.922Y-92.456
X137.922Y-100.076
X140.438Y-108.378
X140.438Y-115.998
X140.462Y-63.246
X140.462Y-70.866
X140.462Y-92.456
X140.462Y-100.076
T3
X180.34Y-31.75
X180.34Y-34.29
X180.34Y-36.83
X200.02Y-115.57
X202.56Y-115.57
X205.486Y-36.576
X205.486Y-39.116
X218.793Y-115.57
X221.333Y-115.57
T4
X160.426Y-43.332
X160.426Y-45.872
X160.426Y-48.412
X160.426Y-50.952
X160.426Y-53.492
X160.426Y-56.032
X160.426Y-58.572
X160.426Y-61.112
X160.426Y-63.652
X160.426Y-66.192
X160.426Y-68.732
X160.426Y-71.272
X160.426Y-73.812
X160.426Y-76.352
X160.426Y-78.892
X160.426Y-81.432
X160.426Y-83.972
X160.426Y-86.512
X160.426Y-89.052
X160.426Y-91.592
X166.776Y-91.362
X169.316Y-91.362
X171.856Y-91.362
X178.206Y-43.332
X178.206Y-45.872
X178.206Y-48.412
X178.206Y-50.952
X178.206Y-53.492
X178.206Y-56.032
X178.206Y-58.572
X178.206Y-61.112
X178.206Y-63.652
X178.206Y-66.192
X178.206Y-68.732
X178.206Y-71.272
X178.206Y-73.812
X178.206Y-76.352
X178.206Y-78.892
X178.206Y-81.432
X178.206Y-83.972
X178.206Y-86.512
X178.206Y-89.052
X178.206Y-91.592
T5
X112.778Y-134.376
X112.778Y-139.176
X116.078Y-134.376
X116.078Y-139.176
X119.378Y-134.376
X119.378Y-139.176
X122.678Y-134.376
X122.678Y-139.176
X125.978Y-134.376
X125.978Y-139.176
X129.278Y-134.376
X129.278Y-139.176
X132.578Y-134.376
X132.578Y-139.176
X135.878Y-134.376
X135.878Y-139.176
X139.178Y-134.376
X139.178Y-139.176
X142.478Y-134.376
X142.478Y-139.176
X145.778Y-134.376
X145.778Y-139.176
X149.078Y-134.376
X149.078Y-139.176
X152.378Y-134.376
X152.378Y-139.176
X155.678Y-134.376
X155.678Y-139.176
X180.478Y-134.376
X180.478Y-139.176
X183.778Y-134.376
X183.778Y-139.176
X187.078Y-134.376
X187.078Y-139.176
X190.378Y-134.376
X190.378Y-139.176
X193.678Y-134.376
X193.678Y-139.176
X196.978Y-134.376
X196.978Y-139.176
X200.278Y-134.376
X200.278Y-139.176
X203.578Y-134.376
X203.578Y-139.176
X206.878Y-134.376
X206.878Y-139.176
X210.178Y-134.376
X210.178Y-139.176
X213.478Y-134.376
X213.478Y-139.176
X216.778Y-134.376
X216.778Y-139.176
X220.078Y-134.376
X220.078Y-139.176
X223.378Y-134.376
X223.378Y-139.176
T6
X105.797Y-39.114
X229.87Y-39.114
T7
X105.778Y-138.176
X230.378Y-138.176
T0
M30
