%TF.GenerationSoftware,KiCad,Pcbnew,7.0.1-0*%
%TF.CreationDate,2023-08-06T23:45:38+01:00*%
%TF.ProjectId,chademo-charge-controller,63686164-656d-46f2-9d63-68617267652d,rev?*%
%TF.SameCoordinates,Original*%
%TF.FileFunction,Legend,Bot*%
%TF.FilePolarity,Positive*%
%FSLAX46Y46*%
G04 Gerber Fmt 4.6, Leading zero omitted, Abs format (unit mm)*
G04 Created by KiCad (PCBNEW 7.0.1-0) date 2023-08-06 23:45:38*
%MOMM*%
%LPD*%
G01*
G04 APERTURE LIST*
%ADD10R,1.600000X1.600000*%
%ADD11O,1.600000X1.600000*%
%ADD12C,1.800000*%
%ADD13C,5.000000*%
%ADD14R,1.700000X1.700000*%
%ADD15O,1.700000X1.700000*%
%ADD16C,5.600000*%
%ADD17O,1.800000X1.800000*%
%ADD18O,1.500000X1.500000*%
G04 APERTURE END LIST*
%LPC*%
D10*
%TO.C,U7*%
X137922000Y-70866000D03*
D11*
X140462000Y-70866000D03*
X140462000Y-63246000D03*
X137922000Y-63246000D03*
%TD*%
D10*
%TO.C,U6*%
X137922000Y-100076000D03*
D11*
X140462000Y-100076000D03*
X140462000Y-92456000D03*
X137922000Y-92456000D03*
%TD*%
D12*
%TO.C,J2*%
X112778000Y-134376000D03*
X116078000Y-134376000D03*
X119378000Y-134376000D03*
X122678000Y-134376000D03*
X125978000Y-134376000D03*
X129278000Y-134376000D03*
X132578000Y-134376000D03*
X135878000Y-134376000D03*
X139178000Y-134376000D03*
X142478000Y-134376000D03*
X145778000Y-134376000D03*
X149078000Y-134376000D03*
X152378000Y-134376000D03*
X155678000Y-134376000D03*
X180478000Y-134376000D03*
X183778000Y-134376000D03*
X187078000Y-134376000D03*
X190378000Y-134376000D03*
X193678000Y-134376000D03*
X196978000Y-134376000D03*
X200278000Y-134376000D03*
X203578000Y-134376000D03*
X206878000Y-134376000D03*
X210178000Y-134376000D03*
X213478000Y-134376000D03*
X216778000Y-134376000D03*
X220078000Y-134376000D03*
X223378000Y-134376000D03*
X112778000Y-139176000D03*
X116078000Y-139176000D03*
X119378000Y-139176000D03*
X122678000Y-139176000D03*
X125978000Y-139176000D03*
X129278000Y-139176000D03*
X132578000Y-139176000D03*
X135878000Y-139176000D03*
X139178000Y-139176000D03*
X142478000Y-139176000D03*
X145778000Y-139176000D03*
X149078000Y-139176000D03*
X152378000Y-139176000D03*
X155678000Y-139176000D03*
X180478000Y-139176000D03*
X183778000Y-139176000D03*
X187078000Y-139176000D03*
X190378000Y-139176000D03*
X193678000Y-139176000D03*
X196978000Y-139176000D03*
X200278000Y-139176000D03*
X203578000Y-139176000D03*
X206878000Y-139176000D03*
X210178000Y-139176000D03*
X213478000Y-139176000D03*
X216778000Y-139176000D03*
X220078000Y-139176000D03*
X223378000Y-139176000D03*
D13*
X105778000Y-138176000D03*
X230378000Y-138176000D03*
%TD*%
D10*
%TO.C,U2*%
X114751250Y-100320000D03*
D11*
X117291250Y-100320000D03*
X117291250Y-92700000D03*
X114751250Y-92700000D03*
%TD*%
D14*
%TO.C,J1*%
X180340000Y-31750000D03*
D15*
X180340000Y-34290000D03*
X180340000Y-36830000D03*
%TD*%
D14*
%TO.C,J3*%
X200020000Y-115570000D03*
D15*
X202560000Y-115570000D03*
%TD*%
D16*
%TO.C,H1*%
X105796570Y-39114133D03*
%TD*%
D10*
%TO.C,U5*%
X137897642Y-115998393D03*
D11*
X140437642Y-115998393D03*
X140437642Y-108378393D03*
X137897642Y-108378393D03*
%TD*%
D16*
%TO.C,H2*%
X229870000Y-39114133D03*
%TD*%
D17*
%TO.C,U1*%
X166591400Y-43462400D03*
D18*
X166891400Y-46492400D03*
X171741400Y-46492400D03*
D17*
X172041400Y-43462400D03*
D15*
X160426400Y-43332400D03*
X160426400Y-45872400D03*
D14*
X160426400Y-48412400D03*
D15*
X160426400Y-50952400D03*
X160426400Y-53492400D03*
X160426400Y-56032400D03*
X160426400Y-58572400D03*
D14*
X160426400Y-61112400D03*
D15*
X160426400Y-63652400D03*
X160426400Y-66192400D03*
X160426400Y-68732400D03*
X160426400Y-71272400D03*
D14*
X160426400Y-73812400D03*
D15*
X160426400Y-76352400D03*
X160426400Y-78892400D03*
X160426400Y-81432400D03*
X160426400Y-83972400D03*
D14*
X160426400Y-86512400D03*
D15*
X160426400Y-89052400D03*
X160426400Y-91592400D03*
X178206400Y-91592400D03*
X178206400Y-89052400D03*
D14*
X178206400Y-86512400D03*
D15*
X178206400Y-83972400D03*
X178206400Y-81432400D03*
X178206400Y-78892400D03*
X178206400Y-76352400D03*
D14*
X178206400Y-73812400D03*
D15*
X178206400Y-71272400D03*
X178206400Y-68732400D03*
X178206400Y-66192400D03*
X178206400Y-63652400D03*
D14*
X178206400Y-61112400D03*
D15*
X178206400Y-58572400D03*
X178206400Y-56032400D03*
X178206400Y-53492400D03*
X178206400Y-50952400D03*
D14*
X178206400Y-48412400D03*
D15*
X178206400Y-45872400D03*
X178206400Y-43332400D03*
X166776400Y-91362400D03*
D14*
X169316400Y-91362400D03*
D15*
X171856400Y-91362400D03*
%TD*%
D10*
%TO.C,U4*%
X113787000Y-71110000D03*
D11*
X116327000Y-71110000D03*
X116327000Y-63490000D03*
X113787000Y-63490000D03*
%TD*%
D10*
%TO.C,U3*%
X114300000Y-116586000D03*
D11*
X116840000Y-116586000D03*
X116840000Y-108966000D03*
X114300000Y-108966000D03*
%TD*%
D14*
%TO.C,J7*%
X205486000Y-39116000D03*
D15*
X205486000Y-36576000D03*
%TD*%
D14*
%TO.C,J8*%
X218793398Y-115570000D03*
D15*
X221333398Y-115570000D03*
%TD*%
M02*
